<svg width="38" height="38" viewBox="0 0 38 38" fill="none" xmlns="http://www.w3.org/2000/svg">
<path d="M9.5 21.375C10.8117 21.375 11.875 20.3117 11.875 19C11.875 17.6883 10.8117 16.625 9.5 16.625C8.18832 16.625 7.125 17.6883 7.125 19C7.125 20.3117 8.18832 21.375 9.5 21.375Z" fill="#BEBEBE"/>
<path d="M19 21.375C20.3117 21.375 21.375 20.3117 21.375 19C21.375 17.6883 20.3117 16.625 19 16.625C17.6883 16.625 16.625 17.6883 16.625 19C16.625 20.3117 17.6883 21.375 19 21.375Z" fill="#BEBEBE"/>
<path d="M28.5 21.375C29.8117 21.375 30.875 20.3117 30.875 19C30.875 17.6883 29.8117 16.625 28.5 16.625C27.1883 16.625 26.125 17.6883 26.125 19C26.125 20.3117 27.1883 21.375 28.5 21.375Z" fill="#BEBEBE"/>
</svg>
