<svg width="98" height="98" viewBox="0 0 98 98" fill="none" xmlns="http://www.w3.org/2000/svg">
<path opacity="0.1" d="M48.875 6C25.198 6 6 25.198 6 48.875C6 72.552 25.198 91.75 48.875 91.75C72.552 91.75 91.75 72.552 91.75 48.875C91.75 25.198 72.552 6 48.875 6ZM48.875 84.4766C29.2176 84.4766 13.2734 68.5324 13.2734 48.875C13.2734 29.2176 29.2176 13.2734 48.875 13.2734C68.5324 13.2734 84.4766 29.2176 84.4766 48.875C84.4766 68.5324 68.5324 84.4766 48.875 84.4766ZM53.44 46.6547L51.0092 46.09V33.2371C54.6459 33.7348 56.8949 36.0125 57.2777 38.807C57.3256 39.1898 57.651 39.4674 58.0338 39.4674H62.3309C62.7807 39.4674 63.1348 39.075 63.0965 38.6252C62.5127 32.6629 57.6031 28.8348 51.0475 28.1744V25.0449C51.0475 24.6238 50.7029 24.2793 50.2818 24.2793H47.5926C47.1715 24.2793 46.827 24.6238 46.827 25.0449V28.2031C40.0512 28.8635 34.7492 32.6055 34.7492 39.5918C34.7492 46.0613 39.5152 49.1813 44.5205 50.3775L46.8844 50.9805V64.6373C42.6543 64.0727 40.2809 61.8141 39.7928 58.7707C39.7354 58.407 39.41 58.1391 39.0367 58.1391H34.6152C34.1654 58.1391 33.8113 58.5219 33.8496 58.9717C34.2803 64.2354 38.2711 69.0779 46.7887 69.7V72.7051C46.7887 73.1262 47.1332 73.4707 47.5543 73.4707H50.2723C50.6934 73.4707 51.0379 73.1262 51.0379 72.6955L51.0188 69.6617C58.5123 69.0014 63.8717 64.9914 63.8717 57.7945C63.8621 51.1527 59.6416 48.1859 53.44 46.6547ZM46.8748 45.1043C46.3389 44.9512 45.8891 44.8076 45.4393 44.6258C42.2045 43.4582 40.702 41.5728 40.702 39.142C40.702 35.668 43.3338 33.6869 46.8748 33.2371V45.1043ZM51.0092 64.666V51.8705C51.3059 51.9566 51.5738 52.0236 51.8514 52.0811C56.3781 53.4592 57.8998 55.3732 57.8998 58.3113C57.8998 62.0533 55.0861 64.3023 51.0092 64.666Z" fill="#02265A"/>
</svg>
