<svg width="26" height="25" viewBox="0 0 26 25" fill="none" xmlns="http://www.w3.org/2000/svg">
<path d="M23.8625 20.9578C23.0996 20.2663 22.4317 19.4736 21.8767 18.601C21.2709 17.3965 20.9078 16.0811 20.8087 14.732V10.7584C20.8055 10.2758 20.7631 9.7942 20.6821 9.31861C20.0594 9.19205 19.461 8.96388 18.91 8.64294C19.12 9.33055 19.2267 10.0465 19.2264 10.7665V14.7401C19.3234 16.3858 19.7687 17.9909 20.5318 19.4456C21.078 20.3256 21.7261 21.1358 22.4622 21.8587H2.20122C2.9373 21.1358 3.58539 20.3256 4.13159 19.4456C4.89473 17.9909 5.33999 16.3858 5.43696 14.7401V10.7584C5.43279 9.82752 5.60927 8.90493 5.95629 8.04346C6.30331 7.182 6.81405 6.39859 7.45927 5.73809C8.10448 5.0776 8.87151 4.55299 9.71641 4.19431C10.5613 3.83563 11.4675 3.64992 12.3831 3.64781C13.7231 3.6489 15.033 4.05181 16.1489 4.8061C16.0259 4.3468 15.9568 3.87429 15.9432 3.39846V2.89171C15.1172 2.47855 14.2297 2.20678 13.3166 2.08734V1.07383C13.3166 0.789034 13.2054 0.515901 13.0073 0.314518C12.8092 0.113136 12.5406 0 12.2605 0C11.9804 0 11.7117 0.113136 11.5137 0.314518C11.3156 0.515901 11.2043 0.789034 11.2043 1.07383V2.12756C9.15981 2.42079 7.28867 3.45617 5.93634 5.04253C4.58401 6.6289 3.84182 8.65914 3.84678 10.7584V14.732C3.74769 16.0811 3.38458 17.3965 2.77875 18.601C2.23357 19.4716 1.57638 20.2643 0.82465 20.9578C0.74026 21.0332 0.672626 21.126 0.626247 21.23C0.579868 21.334 0.555806 21.4469 0.555664 21.5611V22.655C0.555664 22.8684 0.639015 23.073 0.787382 23.2238C0.935748 23.3747 1.13698 23.4594 1.3468 23.4594H23.3403C23.5501 23.4594 23.7514 23.3747 23.8997 23.2238C24.0481 23.073 24.1314 22.8684 24.1314 22.655V21.5611C24.1313 21.4469 24.1072 21.334 24.0609 21.23C24.0145 21.126 23.9468 21.0332 23.8625 20.9578Z" fill="white"/>
<path d="M21.6002 8.04369C23.7849 8.04369 25.5559 6.24305 25.5559 4.02184C25.5559 1.80064 23.7849 0 21.6002 0C19.4155 0 17.6445 1.80064 17.6445 4.02184C17.6445 6.24305 19.4155 8.04369 21.6002 8.04369Z" fill="#FF3E3E"/>
<path d="M12.6447 24.9998C13.1431 24.9881 13.6213 24.7976 13.9949 24.462C14.3684 24.1264 14.6132 23.6673 14.6858 23.1658H10.5244C10.5992 23.6809 10.8554 24.1508 11.2454 24.4881C11.6354 24.8255 12.1327 25.0073 12.6447 24.9998V24.9998Z" fill="white"/>
</svg>
