<svg width="20" height="20" viewBox="0 0 20 20" fill="none" xmlns="http://www.w3.org/2000/svg">
<path d="M10.5998 0L10.3324 0.239235L0.586124 10.0931L0 10.681L0.586979 11.2961L8.70386 19.413L9.31904 20L9.90858 19.413L19.7599 9.66678L19.9983 9.3985V0H10.5998ZM11.3209 1.70882H18.2895V8.67738L9.31818 17.5957L2.4026 10.6801L11.3209 1.70882ZM15.7262 3.41763C15.4996 3.41763 15.2823 3.50765 15.1221 3.66789C14.9619 3.82812 14.8718 4.04544 14.8718 4.27204C14.8718 4.49865 14.9619 4.71597 15.1221 4.8762C15.2823 5.03643 15.4996 5.12645 15.7262 5.12645C15.9528 5.12645 16.1702 5.03643 16.3304 4.8762C16.4906 4.71597 16.5807 4.49865 16.5807 4.27204C16.5807 4.04544 16.4906 3.82812 16.3304 3.66789C16.1702 3.50765 15.9528 3.41763 15.7262 3.41763Z" fill="white"/>
</svg>
