<svg width="16" height="16" viewBox="0 0 16 16" fill="none" xmlns="http://www.w3.org/2000/svg">
<path d="M6.70973 5.24089H7.99408V11.1204C7.99408 11.1969 8.05665 11.2595 8.13312 11.2595H9.1759C9.25237 11.2595 9.31494 11.1969 9.31494 11.1204V5.24089H10.6028C10.7192 5.24089 10.7835 5.10706 10.7123 5.01669L8.76574 2.55225C8.75274 2.53563 8.73612 2.52219 8.71715 2.51295C8.69818 2.5037 8.67735 2.4989 8.65625 2.4989C8.63515 2.4989 8.61432 2.5037 8.59535 2.51295C8.57638 2.52219 8.55976 2.53563 8.54676 2.55225L6.60023 5.01495C6.52898 5.10706 6.59328 5.24089 6.70973 5.24089ZM15.0172 10.599H13.9744C13.898 10.599 13.8354 10.6616 13.8354 10.7381V13.4145H3.47711V10.7381C3.47711 10.6616 3.41454 10.599 3.33807 10.599H2.29529C2.21882 10.599 2.15625 10.6616 2.15625 10.7381V14.1793C2.15625 14.4869 2.40478 14.7354 2.7124 14.7354H14.6001C14.9077 14.7354 15.1562 14.4869 15.1562 14.1793V10.7381C15.1562 10.6616 15.0937 10.599 15.0172 10.599Z" fill="white"/>
</svg>
