<svg width="20" height="20" viewBox="0 0 20 20" fill="none" xmlns="http://www.w3.org/2000/svg">
<path d="M17.5 1.25C17.8315 1.25 18.1495 1.3817 18.3839 1.61612C18.6183 1.85054 18.75 2.16848 18.75 2.5V17.5C18.75 17.8315 18.6183 18.1495 18.3839 18.3839C18.1495 18.6183 17.8315 18.75 17.5 18.75H2.5C2.16848 18.75 1.85054 18.6183 1.61612 18.3839C1.3817 18.1495 1.25 17.8315 1.25 17.5V2.5C1.25 2.16848 1.3817 1.85054 1.61612 1.61612C1.85054 1.3817 2.16848 1.25 2.5 1.25H17.5ZM2.5 0C1.83696 0 1.20107 0.263392 0.732233 0.732233C0.263392 1.20107 0 1.83696 0 2.5L0 17.5C0 18.163 0.263392 18.7989 0.732233 19.2678C1.20107 19.7366 1.83696 20 2.5 20H17.5C18.163 20 18.7989 19.7366 19.2678 19.2678C19.7366 18.7989 20 18.163 20 17.5V2.5C20 1.83696 19.7366 1.20107 19.2678 0.732233C18.7989 0.263392 18.163 0 17.5 0L2.5 0Z" fill="white"/>
<path d="M11.1624 8.235L8.29994 8.59375L8.19744 9.06875L8.75994 9.1725C9.12744 9.26 9.19994 9.3925 9.11994 9.75875L8.19744 14.0938C7.95494 15.215 8.32869 15.7425 9.20744 15.7425C9.88869 15.7425 10.6799 15.4275 11.0387 14.995L11.1487 14.475C10.8987 14.695 10.5337 14.7825 10.2912 14.7825C9.94744 14.7825 9.82244 14.5413 9.91119 14.1163L11.1624 8.235ZM11.2499 5.625C11.2499 5.95652 11.1182 6.27446 10.8838 6.50888C10.6494 6.7433 10.3315 6.875 9.99994 6.875C9.66842 6.875 9.35048 6.7433 9.11606 6.50888C8.88164 6.27446 8.74994 5.95652 8.74994 5.625C8.74994 5.29348 8.88164 4.97554 9.11606 4.74112C9.35048 4.5067 9.66842 4.375 9.99994 4.375C10.3315 4.375 10.6494 4.5067 10.8838 4.74112C11.1182 4.97554 11.2499 5.29348 11.2499 5.625Z" fill="white"/>
</svg>
