<svg width="85" height="85" viewBox="0 0 85 85" fill="none" xmlns="http://www.w3.org/2000/svg">
<g opacity="0.1" clip-path="url(#clip0_104_2627)">
<path fill-rule="evenodd" clip-rule="evenodd" d="M0 0H5.3125V79.6875H85V85H0V0ZM53.125 18.5938C53.125 17.8893 53.4049 17.2136 53.903 16.7155C54.4011 16.2174 55.0768 15.9375 55.7812 15.9375H77.0312C77.7357 15.9375 78.4114 16.2174 78.9095 16.7155C79.4076 17.2136 79.6875 17.8893 79.6875 18.5938V39.8438C79.6875 40.5482 79.4076 41.2239 78.9095 41.722C78.4114 42.2201 77.7357 42.5 77.0312 42.5C76.3268 42.5 75.6511 42.2201 75.153 41.722C74.6549 41.2239 74.375 40.5482 74.375 39.8438V26.0313L55.1809 49.4966C54.946 49.7834 54.6536 50.0178 54.3225 50.1848C53.9915 50.3518 53.6292 50.4476 53.2589 50.4661C52.8886 50.4846 52.5185 50.4254 52.1725 50.2923C51.8264 50.1592 51.5121 49.9551 51.2497 49.6931L37.5062 35.9497L18.0838 62.6556C17.6589 63.1959 17.0411 63.5504 16.3603 63.6447C15.6795 63.7391 14.9886 63.5658 14.4329 63.1614C13.8771 62.7569 13.4998 62.1528 13.3801 61.476C13.2605 60.7992 13.4078 60.1023 13.7912 59.5319L35.0413 30.3131C35.2668 30.0024 35.557 29.7443 35.8919 29.5566C36.2268 29.3688 36.5985 29.2559 36.9812 29.2256C37.364 29.1953 37.7487 29.2483 38.109 29.3811C38.4693 29.5138 38.7965 29.723 39.0681 29.9944L52.9284 43.86L71.4266 21.25H55.7812C55.0768 21.25 54.4011 20.9701 53.903 20.472C53.4049 19.9739 53.125 19.2982 53.125 18.5938Z" fill="#02265A"/>
</g>
<defs>
<clipPath id="clip0_104_2627">
<rect width="85" height="85" fill="white"/>
</clipPath>
</defs>
</svg>
