<svg width="17" height="17" viewBox="0 0 17 17" fill="none" xmlns="http://www.w3.org/2000/svg">
<path d="M5.13458 8.66988L1.87019 5.28897C0.58507 6.73993 0.0980753 8.19352 0.0896205 8.22329L0 8.5L0.0887751 8.77671C0.107376 8.83538 2.0469 14.6296 8.50042 14.6296C9.28587 14.6296 10.0011 14.5403 10.6581 14.3905L8.3364 11.986C7.50046 11.9435 6.70966 11.5805 6.11785 10.9676C5.52605 10.3547 5.17556 9.53565 5.13458 8.66988V8.66988ZM8.50042 2.3704C6.93206 2.3704 5.64694 2.72417 4.57572 3.24431L1.44323 0L0.247725 1.23818L15.4663 17L16.6618 15.7618L13.8734 12.8739C16.1038 11.1637 16.8994 8.81348 16.9112 8.77671L17 8.5L16.9112 8.22329C16.8926 8.16462 14.9539 2.3704 8.50042 2.3704ZM10.1119 8.97811C10.27 8.38529 10.1356 7.71804 9.69593 7.26182C9.25628 6.8056 8.61118 6.66725 8.03879 6.831L6.76381 5.51051C7.28629 5.17774 7.88707 5.00022 8.50042 4.99737C10.3655 4.99737 11.8823 6.5683 11.8823 8.5C11.8798 9.13513 11.7081 9.75722 11.386 10.2977L10.1119 8.97811V8.97811Z" fill="#7D7E80"/>
</svg>
