<svg width="86" height="86" viewBox="0 0 86 86" fill="none" xmlns="http://www.w3.org/2000/svg">
<path d="M82.3195 34.2816H79.4867V16.0674C79.4867 15.2623 79.1882 14.4901 78.657 13.9208C78.1257 13.3515 77.4052 13.0317 76.6538 13.0317H8.66577C7.99498 13.0434 7.34208 12.7997 6.82332 12.3438C6.30456 11.888 5.9536 11.2496 5.83293 10.5424V9.44957C5.9536 8.74238 6.30456 8.10403 6.82332 7.64818C7.34208 7.19233 7.99498 6.94857 8.66577 6.96029H75.464C76.2154 6.96029 76.9359 6.64046 77.4672 6.07115C77.9984 5.50185 78.2969 4.72971 78.2969 3.92459C78.2969 3.11947 77.9984 2.34733 77.4672 1.77802C76.9359 1.20872 76.2154 0.888885 75.464 0.888885H8.66577C6.41182 0.888885 4.25019 1.84838 2.65641 3.5563C1.06263 5.26421 0.167256 7.58064 0.167256 9.99599C0.147373 10.36 0.147373 10.7249 0.167256 11.0888V73.5332C0.178376 75.1677 0.489821 76.7839 1.08381 78.2894C1.67779 79.7949 2.54269 81.1603 3.62911 82.3076C4.71552 83.4549 6.00219 84.3616 7.41563 84.9761C8.82907 85.5905 10.3416 85.9006 11.8669 85.8886H76.6538C77.4052 85.8886 78.1257 85.5687 78.657 84.9994C79.1882 84.4301 79.4867 83.658 79.4867 82.8528V64.6386H82.3195C83.0708 64.6386 83.7914 64.3188 84.3226 63.7495C84.8539 63.1802 85.1523 62.4081 85.1523 61.6029V37.3173C85.1523 36.5122 84.8539 35.7401 84.3226 35.1707C83.7914 34.6014 83.0708 34.2816 82.3195 34.2816ZM73.821 79.8171H11.8669C10.2913 79.8335 8.77336 79.1824 7.64337 78.0056C6.51339 76.8288 5.86273 75.2215 5.83293 73.5332V18.7388C6.75247 19.0244 7.70929 19.1474 8.66577 19.1031H73.821V34.2816H53.9911C50.2346 34.2816 46.6319 35.8808 43.9756 38.7273C41.3193 41.5738 39.827 45.4345 39.827 49.4601C39.827 53.4857 41.3193 57.3464 43.9756 60.193C46.6319 63.0395 50.2346 64.6386 53.9911 64.6386H73.821V79.8171ZM79.4867 58.5672H53.9911C51.7372 58.5672 49.5756 57.6077 47.9818 55.8998C46.388 54.1919 45.4926 51.8755 45.4926 49.4601C45.4926 47.0448 46.388 44.7283 47.9818 43.0204C49.5756 41.3125 51.7372 40.353 53.9911 40.353H79.4867V58.5672Z" fill="#02265A"/>
<path d="M56.8523 54.0137C59.1991 54.0137 61.1015 51.975 61.1015 49.4601C61.1015 46.9453 59.1991 44.9066 56.8523 44.9066C54.5055 44.9066 52.603 46.9453 52.603 49.4601C52.603 51.975 54.5055 54.0137 56.8523 54.0137Z" fill="#02265A"/>
</svg>
