<svg width="20" height="20" viewBox="0 0 20 20" fill="none" xmlns="http://www.w3.org/2000/svg">
<path d="M2.85693 2.86473C2.85693 2.1073 3.15795 1.3809 3.69377 0.845318C4.22959 0.309737 4.95632 0.0088501 5.71408 0.0088501C6.47184 0.0088501 7.19856 0.309737 7.73438 0.845318C8.2702 1.3809 8.57122 2.1073 8.57122 2.86473C8.57122 3.62216 8.2702 4.34856 7.73438 4.88414C7.19856 5.41972 6.47184 5.72061 5.71408 5.72061C4.95632 5.72061 4.22959 5.41972 3.69377 4.88414C3.15795 4.34856 2.85693 3.62216 2.85693 2.86473V2.86473ZM5.71408 1.43679C5.3352 1.43679 4.97183 1.58723 4.70392 1.85502C4.43602 2.12281 4.28551 2.48602 4.28551 2.86473C4.28551 3.24344 4.43602 3.60664 4.70392 3.87443C4.97183 4.14223 5.3352 4.29267 5.71408 4.29267C6.09296 4.29267 6.45632 4.14223 6.72423 3.87443C6.99214 3.60664 7.14265 3.24344 7.14265 2.86473C7.14265 2.48602 6.99214 2.12281 6.72423 1.85502C6.45632 1.58723 6.09296 1.43679 5.71408 1.43679V1.43679Z" fill="white"/>
<path d="M12.5413 5.12658C12.242 4.89839 11.9908 4.61333 11.8021 4.28778C11.6133 3.96223 11.4908 3.60261 11.4416 3.22959C11.3923 2.85657 11.4173 2.47749 11.515 2.11415C11.6128 1.7508 11.7814 1.41034 12.0112 1.11234C12.2411 0.814342 12.5275 0.56467 12.8542 0.377673C13.1808 0.190676 13.5412 0.07004 13.9146 0.0226973C14.2881 -0.0246454 14.6672 0.00223807 15.0302 0.101803C15.3932 0.201368 15.7329 0.371652 16.0299 0.60287C16.6146 1.07038 16.9923 1.74864 17.0818 2.49171C17.1713 3.23477 16.9654 3.98325 16.5084 4.57611C16.0514 5.16896 15.3798 5.5588 14.6382 5.66175C13.8965 5.7647 13.1441 5.57253 12.5428 5.12658H12.5413ZM14.2856 1.43679C13.9067 1.43679 13.5434 1.58723 13.2755 1.85502C13.0076 2.12281 12.857 2.48601 12.857 2.86473C12.857 3.24344 13.0076 3.60664 13.2755 3.87443C13.5434 4.14222 13.9067 4.29267 14.2856 4.29267C14.6645 4.29267 15.0279 4.14222 15.2958 3.87443C15.5637 3.60664 15.7142 3.24344 15.7142 2.86473C15.7142 2.48601 15.5637 2.12281 15.2958 1.85502C15.0279 1.58723 14.6645 1.43679 14.2856 1.43679V1.43679Z" fill="white"/>
<path d="M2.14286 7.14856H5.95714C5.8 7.5955 5.71429 8.07672 5.71429 8.5765H2.14286C1.95342 8.5765 1.77174 8.65172 1.63778 8.78562C1.50383 8.91951 1.42857 9.10111 1.42857 9.29047C1.42857 10.4571 1.89286 11.3224 2.62571 11.9107C2.96286 12.182 3.36714 12.4005 3.82429 12.5605C3.48858 12.9171 3.22989 13.339 3.06429 13.7999C2.58476 13.6074 2.13578 13.3462 1.73143 13.0245C0.657143 12.1606 0 10.884 0 9.29047C0 8.7224 0.225765 8.1776 0.627628 7.77591C1.02949 7.37422 1.57454 7.14856 2.14286 7.14856V7.14856Z" fill="white"/>
<path d="M7.52568 7.14854C7.1468 7.80485 7.04427 8.58472 7.24064 9.3166C7.43702 10.0485 7.91622 10.6724 8.57282 11.0511C9.22942 11.4298 10.0096 11.5323 10.7418 11.336C11.474 11.1397 12.0982 10.6607 12.4771 10.0044C12.856 9.34811 12.9585 8.56824 12.7621 7.83637C12.5658 7.1045 12.0866 6.48058 11.43 6.10186C10.7734 5.72315 9.99314 5.62067 9.26095 5.81696C8.52875 6.01325 7.90456 6.49223 7.52568 7.14854V7.14854ZM9.67996 7.18424C9.88927 7.13698 10.1065 7.13731 10.3157 7.18522C10.5249 7.23312 10.7206 7.32737 10.8884 7.46101C11.0563 7.59465 11.192 7.76427 11.2854 7.95733C11.3789 8.1504 11.4278 8.36199 11.4285 8.57648C11.4284 8.84515 11.3525 9.10834 11.2094 9.33581C11.0664 9.56328 10.8621 9.74579 10.6199 9.86238C10.3777 9.97897 10.1076 10.0249 9.84046 9.99491C9.57335 9.96491 9.32012 9.86019 9.10988 9.69279C8.89964 9.5254 8.74091 9.30211 8.65193 9.04858C8.56296 8.79506 8.54734 8.52159 8.60688 8.25959C8.66642 7.99759 8.7987 7.7577 8.98852 7.56748C9.17834 7.37726 9.418 7.24442 9.67996 7.18424Z" fill="white"/>
<path d="M17.3744 11.9107C17.0373 12.182 16.633 12.4005 16.1758 12.5605C16.511 12.9173 16.7692 13.3391 16.9344 13.7999C17.4201 13.6014 17.8701 13.343 18.2687 13.0245C19.343 12.1606 20.0001 10.884 20.0001 9.29047C20.0001 8.7224 19.7743 8.1776 19.3725 7.77591C18.9706 7.37422 18.4256 7.14856 17.8573 7.14856H14.043C14.2001 7.5955 14.2858 8.07672 14.2858 8.5765H17.8573C18.0467 8.5765 18.2284 8.65172 18.3623 8.78562C18.4963 8.91951 18.5715 9.10111 18.5715 9.29047C18.5715 10.4571 18.1073 11.3224 17.3744 11.9107Z" fill="white"/>
<path d="M13.5714 12.8603C14.1397 12.8603 14.6847 13.086 15.0866 13.4877C15.4885 13.8894 15.7142 14.4342 15.7142 15.0022C15.7142 16.5958 15.0585 17.8724 13.9828 18.7363C12.9242 19.5859 11.5042 20 9.99994 20C8.49565 20 7.07565 19.5859 6.01708 18.7363C4.94279 17.8724 4.28565 16.5958 4.28565 15.0022C4.2849 14.7207 4.33981 14.4419 4.44723 14.1817C4.55465 13.9215 4.71247 13.685 4.9116 13.486C5.11073 13.287 5.34726 13.1292 5.60758 13.0218C5.86791 12.9145 6.14689 12.8596 6.42851 12.8603H13.5714ZM13.5714 14.2883H6.42851C6.23907 14.2883 6.05739 14.3635 5.92343 14.4974C5.78948 14.6313 5.71422 14.8129 5.71422 15.0022C5.71422 16.1689 6.17851 17.0342 6.91137 17.6225C7.66279 18.2251 8.74279 18.5721 9.99994 18.5721C11.2571 18.5721 12.3371 18.2251 13.0885 17.6225C13.8214 17.0342 14.2857 16.1689 14.2857 15.0022C14.2857 14.8129 14.2104 14.6313 14.0764 14.4974C13.9425 14.3635 13.7608 14.2883 13.5714 14.2883V14.2883Z" fill="white"/>
</svg>
