<svg width="86" height="86" viewBox="0 0 86 86" fill="none" xmlns="http://www.w3.org/2000/svg">
<path d="M82.8219 34.2816H79.9891V16.0674C79.9891 15.2623 79.6907 14.4902 79.1594 13.9209C78.6281 13.3516 77.9076 13.0317 77.1563 13.0317H9.16821C8.49742 13.0434 7.84453 12.7997 7.32576 12.3438C6.807 11.888 6.45604 11.2496 6.33537 10.5424V9.4496C6.45604 8.74241 6.807 8.10406 7.32576 7.64821C7.84453 7.19236 8.49742 6.9486 9.16821 6.96032H75.9665C76.7178 6.96032 77.4383 6.64049 77.9696 6.07118C78.5009 5.50188 78.7993 4.72974 78.7993 3.92462C78.7993 3.1195 78.5009 2.34736 77.9696 1.77805C77.4383 1.20875 76.7178 0.888916 75.9665 0.888916H9.16821C6.91426 0.888916 4.75263 1.84841 3.15885 3.55633C1.56507 5.26424 0.669698 7.58067 0.669698 9.99602C0.649814 10.36 0.649814 10.7249 0.669698 11.0889V73.5333C0.680818 75.1678 0.992262 76.7839 1.58625 78.2894C2.18023 79.7949 3.04513 81.1603 4.13155 82.3076C5.21796 83.4549 6.50463 84.3617 7.91807 84.9761C9.33151 85.5905 10.844 85.9006 12.3693 85.8886H77.1563C77.9076 85.8886 78.6281 85.5687 79.1594 84.9994C79.6907 84.4301 79.9891 83.658 79.9891 82.8529V64.6387H82.8219C83.5733 64.6387 84.2938 64.3188 84.8251 63.7495C85.3563 63.1802 85.6548 62.4081 85.6548 61.603V37.3173C85.6548 36.5122 85.3563 35.7401 84.8251 35.1708C84.2938 34.6015 83.5733 34.2816 82.8219 34.2816ZM74.3234 79.8172H12.3693C10.7937 79.8335 9.2758 79.1824 8.14581 78.0056C7.01583 76.8288 6.36517 75.2215 6.33537 73.5333V18.7388C7.25491 19.0244 8.21173 19.1474 9.16821 19.1031H74.3234V34.2816H54.4936C50.737 34.2816 47.1343 35.8808 44.478 38.7273C41.8217 41.5738 40.3294 45.4346 40.3294 49.4602C40.3294 53.4857 41.8217 57.3465 44.478 60.193C47.1343 63.0395 50.737 64.6387 54.4936 64.6387H74.3234V79.8172ZM79.9891 58.5673H54.4936C52.2396 58.5673 50.078 57.6078 48.4842 55.8998C46.8905 54.1919 45.9951 51.8755 45.9951 49.4602C45.9951 47.0448 46.8905 44.7284 48.4842 43.0205C50.078 41.3125 52.2396 40.353 54.4936 40.353H79.9891V58.5673Z" fill="#02265A"/>
<path d="M57.3552 54.0136C59.702 54.0136 61.6045 51.9749 61.6045 49.46C61.6045 46.9452 59.702 44.9065 57.3552 44.9065C55.0084 44.9065 53.106 46.9452 53.106 49.46C53.106 51.9749 55.0084 54.0136 57.3552 54.0136Z" fill="#02265A"/>
</svg>
