<svg width="85" height="85" viewBox="0 0 85 85" fill="none" xmlns="http://www.w3.org/2000/svg">
<path opacity="0.1" d="M42.5 0C19.0301 0 0 19.0301 0 42.5C0 65.9699 19.0301 85 42.5 85C65.9699 85 85 65.9699 85 42.5C85 19.0301 65.9699 0 42.5 0ZM42.5 77.7902C23.0145 77.7902 7.20982 61.9855 7.20982 42.5C7.20982 23.0145 23.0145 7.20982 42.5 7.20982C61.9855 7.20982 77.7902 23.0145 77.7902 42.5C77.7902 61.9855 61.9855 77.7902 42.5 77.7902ZM47.0251 40.2991L44.6155 39.7394V26.9989C48.2204 27.4922 50.4498 29.75 50.8292 32.5201C50.8767 32.8996 51.1992 33.1747 51.5787 33.1747H55.8382C56.284 33.1747 56.635 32.7857 56.5971 32.3398C56.0184 26.4297 51.1518 22.635 44.6535 21.9805V18.8783C44.6535 18.4609 44.3119 18.1194 43.8945 18.1194H41.2288C40.8114 18.1194 40.4699 18.4609 40.4699 18.8783V22.0089C33.7533 22.6635 28.4978 26.3728 28.4978 33.298C28.4978 39.7109 33.2221 42.8036 38.1836 43.9894L40.5268 44.5871V58.1244C36.3337 57.5647 33.981 55.3259 33.4972 52.3092C33.4403 51.9487 33.1177 51.683 32.7478 51.683H28.365C27.9191 51.683 27.5681 52.0625 27.606 52.5084C28.0329 57.726 31.9888 62.5262 40.4319 63.1429V66.1217C40.4319 66.5391 40.7734 66.8806 41.1909 66.8806H43.885C44.3025 66.8806 44.644 66.5391 44.644 66.1122L44.625 63.1049C52.053 62.4503 57.3655 58.4754 57.3655 51.3415C57.356 44.7578 53.1724 41.817 47.0251 40.2991ZM40.5173 38.7623C39.9861 38.6105 39.5402 38.4682 39.0943 38.2879C35.8878 37.1306 34.3984 35.2617 34.3984 32.8521C34.3984 29.4085 37.0073 27.4448 40.5173 26.9989V38.7623ZM44.6155 58.1529V45.4693C44.9096 45.5547 45.1752 45.6211 45.4503 45.678C49.9375 47.0441 51.4459 48.9414 51.4459 51.8538C51.4459 55.5631 48.6568 57.7924 44.6155 58.1529Z" fill="#02265A"/>
</svg>
