<svg width="20" height="21" viewBox="0 0 20 21" fill="none" xmlns="http://www.w3.org/2000/svg">
<path fill-rule="evenodd" clip-rule="evenodd" d="M2.76923 0H2.69231C2.34 0 2.03692 1.14624e-08 1.76923 0.0630769C1.35482 0.1621 0.975923 0.373917 0.674509 0.675061C0.373094 0.976204 0.160935 1.35491 0.0615384 1.76923C-5.73122e-08 2.03692 0 2.33846 0 2.69231V6.53846C0 6.89077 1.14624e-08 7.19385 0.0630769 7.46154C0.1621 7.87594 0.373918 8.25485 0.675061 8.55626C0.976204 8.85767 1.35491 9.06983 1.76923 9.16923C2.03692 9.23077 2.33846 9.23077 2.69231 9.23077H6.53846C6.89077 9.23077 7.19385 9.23077 7.46154 9.16769C7.87594 9.06867 8.25485 8.85685 8.55626 8.55571C8.85768 8.25457 9.06983 7.87585 9.16923 7.46154C9.23077 7.19385 9.23077 6.89231 9.23077 6.53846V2.69231C9.23077 2.34 9.23077 2.03692 9.16769 1.76923C9.06867 1.35482 8.85685 0.975923 8.55571 0.674508C8.25457 0.373094 7.87586 0.160935 7.46154 0.0615384C7.19385 -5.73122e-08 6.89231 0 6.53846 0H2.76923ZM2.12769 1.56C2.19385 1.54462 2.29692 1.53846 2.76923 1.53846H6.46154C6.93538 1.53846 7.03692 1.54308 7.10308 1.56C7.24128 1.59305 7.36762 1.66373 7.4681 1.76421C7.56858 1.86469 7.63926 1.99103 7.67231 2.12923C7.68769 2.19385 7.69231 2.29538 7.69231 2.76923V6.46154C7.69231 6.93538 7.68769 7.03692 7.67077 7.10308C7.63772 7.24128 7.56704 7.36762 7.46656 7.4681C7.36608 7.56858 7.23974 7.63926 7.10154 7.67231C7.03846 7.68615 6.93692 7.69231 6.46154 7.69231H2.76923C2.29538 7.69231 2.19385 7.68769 2.12769 7.67077C1.98949 7.63772 1.86315 7.56704 1.76267 7.46656C1.66219 7.36608 1.59151 7.23974 1.55846 7.10154C1.54462 7.03846 1.53846 6.93692 1.53846 6.46154V2.76923C1.53846 2.29538 1.54308 2.19385 1.56 2.12769C1.59305 1.98949 1.66373 1.86315 1.76421 1.76267C1.86469 1.66219 1.99103 1.59151 2.12923 1.55846L2.12769 1.56ZM13.5385 0H13.4615C13.1092 0 12.8062 1.14624e-08 12.5385 0.0630769C12.1241 0.1621 11.7452 0.373917 11.4437 0.675061C11.1423 0.976204 10.9302 1.35491 10.8308 1.76923C10.7692 2.03692 10.7692 2.33846 10.7692 2.69231V6.53846C10.7692 6.89077 10.7692 7.19385 10.8323 7.46154C10.9313 7.87594 11.1431 8.25485 11.4443 8.55626C11.7454 8.85767 12.1241 9.06983 12.5385 9.16923C12.8062 9.23077 13.1077 9.23077 13.4615 9.23077H17.3077C17.66 9.23077 17.9631 9.23077 18.2308 9.16769C18.6452 9.06867 19.0241 8.85685 19.3255 8.55571C19.6269 8.25457 19.8391 7.87585 19.9385 7.46154C20 7.19385 20 6.89231 20 6.53846V2.69231C20 2.34 20 2.03692 19.9369 1.76923C19.8379 1.35482 19.6261 0.975923 19.3249 0.674508C19.0238 0.373094 18.6451 0.160935 18.2308 0.0615384C17.9631 -5.73122e-08 17.6615 0 17.3077 0H13.5385ZM12.8969 1.56C12.9631 1.54462 13.0662 1.53846 13.5385 1.53846H17.2308C17.7046 1.53846 17.8062 1.54308 17.8723 1.56C18.0105 1.59305 18.1369 1.66373 18.2373 1.76421C18.3378 1.86469 18.4085 1.99103 18.4415 2.12923C18.4569 2.19385 18.4615 2.29538 18.4615 2.76923V6.46154C18.4615 6.93538 18.4554 7.03692 18.44 7.10308C18.407 7.24128 18.3363 7.36762 18.2358 7.4681C18.1353 7.56858 18.009 7.63926 17.8708 7.67231C17.8062 7.68769 17.7046 7.69231 17.2308 7.69231H13.5385C13.0646 7.69231 12.9631 7.68769 12.8969 7.67077C12.7587 7.63772 12.6324 7.56704 12.5319 7.46656C12.4314 7.36608 12.3607 7.23974 12.3277 7.10154C12.3138 7.03846 12.3077 6.93692 12.3077 6.46154V2.76923C12.3077 2.29538 12.3123 2.19385 12.3292 2.12769C12.3623 1.98949 12.433 1.86315 12.5334 1.76267C12.6339 1.66219 12.7603 1.59151 12.8985 1.55846L12.8969 1.56ZM2.69231 10.7692H6.53846C6.89077 10.7692 7.19385 10.7692 7.46154 10.8323C7.87594 10.9313 8.25485 11.1431 8.55626 11.4443C8.85768 11.7454 9.06983 12.1241 9.16923 12.5385C9.23077 12.8062 9.23077 13.1077 9.23077 13.4615V17.3077C9.23077 17.66 9.23077 17.9631 9.16769 18.2308C9.06867 18.6452 8.85685 19.0241 8.55571 19.3255C8.25457 19.6269 7.87586 19.8391 7.46154 19.9385C7.19385 20 6.89231 20 6.53846 20H2.69231C2.34 20 2.03692 20 1.76923 19.9369C1.35482 19.8379 0.975923 19.6261 0.674509 19.3249C0.373094 19.0238 0.160935 18.6451 0.0615384 18.2308C-5.73122e-08 17.9631 0 17.6615 0 17.3077V13.4615C0 13.1092 1.14624e-08 12.8062 0.0630769 12.5385C0.1621 12.1241 0.373918 11.7452 0.675061 11.4437C0.976204 11.1423 1.35491 10.9302 1.76923 10.8308C2.03692 10.7692 2.33846 10.7692 2.69231 10.7692ZM2.76923 12.3077C2.29538 12.3077 2.19385 12.3123 2.12769 12.3292C1.98949 12.3623 1.86315 12.433 1.76267 12.5334C1.66219 12.6339 1.59151 12.7603 1.55846 12.8985C1.54462 12.9615 1.53846 13.0631 1.53846 13.5385V17.2308C1.53846 17.7046 1.54308 17.8062 1.56 17.8723C1.59305 18.0105 1.66373 18.1369 1.76421 18.2373C1.86469 18.3378 1.99103 18.4085 2.12923 18.4415C2.19385 18.4569 2.29538 18.4615 2.76923 18.4615H6.46154C6.93538 18.4615 7.03692 18.4554 7.10308 18.44C7.24128 18.407 7.36762 18.3363 7.4681 18.2358C7.56858 18.1353 7.63926 18.009 7.67231 17.8708C7.68769 17.8062 7.69231 17.7046 7.69231 17.2308V13.5385C7.69231 13.0646 7.68769 12.9631 7.67077 12.8969C7.63772 12.7587 7.56704 12.6324 7.46656 12.5319C7.36608 12.4314 7.23974 12.3607 7.10154 12.3277C7.03846 12.3138 6.93692 12.3077 6.46154 12.3077H2.76923ZM13.5385 10.7692H13.4615C13.1092 10.7692 12.8062 10.7692 12.5385 10.8323C12.1241 10.9313 11.7452 11.1431 11.4437 11.4443C11.1423 11.7454 10.9302 12.1241 10.8308 12.5385C10.7692 12.8062 10.7692 13.1077 10.7692 13.4615V17.3077C10.7692 17.66 10.7692 17.9631 10.8323 18.2308C10.9313 18.6452 11.1431 19.0241 11.4443 19.3255C11.7454 19.6269 12.1241 19.8391 12.5385 19.9385C12.8062 20.0015 13.1092 20.0015 13.4615 20.0015H17.3077C17.66 20.0015 17.9631 20.0015 18.2308 19.9385C18.6449 19.8392 19.0235 19.6273 19.3246 19.3261C19.6257 19.025 19.8376 18.6464 19.9369 18.2323C20 17.9646 20 17.6615 20 17.3092V13.4615C20 13.1092 20 12.8062 19.9369 12.5385C19.8379 12.1241 19.6261 11.7452 19.3249 11.4437C19.0238 11.1423 18.6451 10.9302 18.2308 10.8308C17.9631 10.7692 17.6615 10.7692 17.3077 10.7692H13.5385ZM12.8969 12.3292C12.9631 12.3138 13.0662 12.3077 13.5385 12.3077H17.2308C17.7046 12.3077 17.8062 12.3123 17.8723 12.3292C18.0105 12.3623 18.1369 12.433 18.2373 12.5334C18.3378 12.6339 18.4085 12.7603 18.4415 12.8985C18.4569 12.9631 18.4615 13.0646 18.4615 13.5385V17.2308C18.4615 17.7046 18.4554 17.8062 18.44 17.8723C18.407 18.0105 18.3363 18.1369 18.2358 18.2373C18.1353 18.3378 18.009 18.4085 17.8708 18.4415C17.8062 18.4569 17.7046 18.4615 17.2308 18.4615H13.5385C13.0646 18.4615 12.9631 18.4554 12.8969 18.44C12.7587 18.407 12.6324 18.3363 12.5319 18.2358C12.4314 18.1353 12.3607 18.009 12.3277 17.8708C12.3138 17.8077 12.3077 17.7062 12.3077 17.2308V13.5385C12.3077 13.0646 12.3123 12.9631 12.3292 12.8969C12.3623 12.7587 12.433 12.6324 12.5334 12.5319C12.6339 12.4314 12.7603 12.3607 12.8985 12.3277L12.8969 12.3292Z" fill="white"/>
</svg>
