<svg width="173" height="56" viewBox="0 0 173 56" fill="none" xmlns="http://www.w3.org/2000/svg">
<path d="M27.8526 0C12.4704 0 0 12.5363 0 28.0001C0 43.4635 12.4704 56 27.8526 56C43.2351 56 55.7052 43.4635 55.7052 28.0001C55.7052 12.5363 43.2351 0 27.8526 0ZM27.8526 51.4001C14.9972 51.4001 4.57548 40.9234 4.57548 27.9999C4.57548 15.0764 14.9972 4.59969 27.8526 4.59969C40.7084 4.59969 51.1299 15.0765 51.1299 27.9999C51.1299 40.9234 40.7084 51.4001 27.8526 51.4001ZM38.3656 27.272C39.2577 26.0061 39.79 24.4217 39.79 22.7002C39.79 18.5582 36.7164 15.2002 32.9267 15.2002C32.6233 15.2002 32.2544 15.2002 31.8326 15.2002V9.40027C31.8326 9.07003 31.5637 8.80068 31.2362 8.80068H29.2452C28.9167 8.80068 28.6488 9.07101 28.6488 9.40027V15.2002H25.4658V9.40027C25.4658 9.07003 25.1969 8.80068 24.8693 8.80068H22.8803C22.5517 8.80068 22.2838 9.07101 22.2838 9.40027V15.2002H15.7182C15.3887 15.2002 15.1218 15.4685 15.1218 15.7998V17.8197C15.1218 18.1287 15.3513 18.3962 15.6576 18.4242C17.8994 18.6307 19.1008 20.1428 19.1008 22.0004V34.4006C19.1008 36.0719 18.243 37.3984 16.3684 37.58C16.1023 37.6061 15.8814 37.7962 15.8315 38.0609L15.4511 40.0999C15.3829 40.4639 15.6614 40.8011 16.0304 40.8011H22.2818V46.6011C22.2818 46.9312 22.5507 47.2005 22.8783 47.2005H24.8674C25.1957 47.2005 25.4638 46.9304 25.4638 46.6011V40.8011H28.6468V46.6011C28.6468 46.9312 28.9157 47.2005 29.2433 47.2005H31.2322C31.5607 47.2005 31.8287 46.9304 31.8287 46.6011V40.8011C32.9563 40.8011 33.8926 40.8011 34.5142 40.8011C38.3051 40.8011 41.3772 37.4884 41.3772 33.4014C41.3811 30.8502 40.1858 28.6025 38.3656 27.272ZM25.4649 19.9997C25.4649 19.9997 28.5258 19.9997 30.339 19.9997C32.1525 19.9997 33.6217 21.4769 33.6217 23.2999C33.6217 25.1227 32.1525 26.5999 30.339 26.5999C28.5258 26.5999 25.4649 26.5999 25.4649 26.5999V19.9997ZM31.9305 36.2001C30.1173 36.2001 25.4649 36.2001 25.4649 36.2001V29.6C25.4649 29.6 30.1173 29.6 31.9305 29.6C33.744 29.6 35.2132 31.0771 35.2132 32.9C35.2132 34.7228 33.744 36.2001 31.9305 36.2001Z" fill="#F7931A"/>
<path d="M65.0015 25.831V7.60697H71.2145C73.2647 7.60697 74.8252 8.01999 75.8957 8.84611C76.9667 9.67219 77.5018 10.903 77.5018 12.5384C77.5018 13.3729 77.2778 14.1239 76.8298 14.7914C76.3814 15.459 75.7259 15.9763 74.8625 16.3435C75.842 16.6105 76.5972 17.1153 77.1283 17.858C77.6681 18.5923 77.9376 19.4768 77.9376 20.5115C77.9376 22.2221 77.39 23.5363 76.2943 24.4542C75.2069 25.3721 73.6464 25.831 71.6127 25.831H65.0015ZM68.1515 17.6076V23.3027H71.6504C72.6378 23.3027 73.4098 23.0565 73.9661 22.5642C74.5219 22.0719 74.8001 21.3876 74.8001 20.5115C74.8001 18.6173 73.8374 17.6494 71.9116 17.6076H68.1515ZM68.1515 15.2796H71.2393C72.2188 15.2796 72.9826 15.0584 73.5302 14.6162C74.0865 14.1656 74.3642 13.5314 74.3642 12.7137C74.3642 11.8125 74.1073 11.1616 73.5926 10.7611C73.0862 10.3606 72.2933 10.1603 71.2145 10.1603H68.1515V15.2796ZM84.0138 25.831H80.9881V12.2881H84.0138V25.831ZM80.8013 8.77098C80.8013 8.3037 80.9465 7.91568 81.2372 7.60697C81.5361 7.29822 81.9594 7.14383 82.507 7.14383C83.055 7.14383 83.4783 7.29822 83.7773 7.60697C84.0758 7.91568 84.2252 8.3037 84.2252 8.77098C84.2252 9.22995 84.0758 9.61378 83.7773 9.92249C83.4783 10.2229 83.055 10.3731 82.507 10.3731C81.9594 10.3731 81.5361 10.2229 81.2372 9.92249C80.9465 9.61378 80.8013 9.22995 80.8013 8.77098ZM91.1103 8.99629V12.2881H93.4884V14.5411H91.1103V22.1011C91.1103 22.6184 91.21 22.9939 91.4093 23.2275C91.6168 23.4528 91.982 23.5655 92.5049 23.5655C92.8537 23.5655 93.2063 23.5238 93.5633 23.4403V25.7934C92.8745 25.9853 92.2103 26.0813 91.5713 26.0813C89.247 26.0813 88.085 24.7921 88.085 22.2137V14.5411H85.8689V12.2881H88.085V8.99629H91.1103ZM109.936 19.8982C109.753 21.8424 109.04 23.3611 107.794 24.4542C106.549 25.5389 104.893 26.0813 102.826 26.0813C101.382 26.0813 100.108 25.7392 99.0044 25.055C97.9087 24.3624 97.0618 23.3819 96.4643 22.1136C95.8665 20.8453 95.5554 19.3725 95.5307 17.6953V15.993C95.5307 14.2741 95.8335 12.7596 96.4392 11.4495C97.0453 10.1395 97.9126 9.12982 99.0417 8.42055C100.179 7.71124 101.49 7.35663 102.976 7.35663C104.976 7.35663 106.587 7.90318 107.807 8.99629C109.027 10.0894 109.737 11.6331 109.936 13.6274H106.798C106.649 12.3173 106.267 11.3744 105.653 10.7987C105.047 10.2146 104.155 9.92249 102.976 9.92249C101.606 9.92249 100.552 10.4274 99.8137 11.437C99.0832 12.4383 98.7094 13.9111 98.6929 15.8553V17.47C98.6929 19.4392 99.0417 20.9412 99.7388 21.9759C100.444 23.0106 101.473 23.528 102.826 23.528C104.063 23.528 104.993 23.2484 105.616 22.6894C106.238 22.1303 106.632 21.1999 106.798 19.8982H109.936ZM111.903 18.9344C111.903 17.6076 112.165 16.4144 112.687 15.3547C113.21 14.2866 113.945 13.4689 114.891 12.9015C115.838 12.3257 116.925 12.0378 118.153 12.0378C119.971 12.0378 121.444 12.6261 122.573 13.8026C123.71 14.9792 124.325 16.5396 124.416 18.4838L124.428 19.1972C124.428 20.5323 124.171 21.7256 123.656 22.777C123.15 23.8284 122.42 24.6419 121.465 25.2177C120.519 25.7934 119.423 26.0813 118.178 26.0813C116.277 26.0813 114.754 25.4472 113.609 24.1788C112.472 22.9021 111.903 21.2041 111.903 19.0846V18.9344ZM114.929 19.1972C114.929 20.5907 115.215 21.6838 115.788 22.4766C116.36 23.2609 117.157 23.6531 118.178 23.6531C119.199 23.6531 119.992 23.2526 120.556 22.4515C121.129 21.6505 121.415 20.4781 121.415 18.9344C121.415 17.5659 121.121 16.4812 120.531 15.6801C119.95 14.879 119.158 14.4785 118.153 14.4785C117.165 14.4785 116.381 14.8749 115.8 15.6676C115.219 16.4519 114.929 17.6285 114.929 19.1972ZM130.206 25.831H127.18V12.2881H130.206V25.831ZM126.993 8.77098C126.993 8.3037 127.138 7.91568 127.429 7.60697C127.728 7.29822 128.151 7.14383 128.699 7.14383C129.247 7.14383 129.67 7.29822 129.969 7.60697C130.268 7.91568 130.417 8.3037 130.417 8.77098C130.417 9.22995 130.268 9.61378 129.969 9.92249C129.67 10.2229 129.247 10.3731 128.699 10.3731C128.151 10.3731 127.728 10.2229 127.429 9.92249C127.138 9.61378 126.993 9.22995 126.993 8.77098ZM136.319 12.2881L136.406 13.8527C137.402 12.6428 138.709 12.0378 140.328 12.0378C143.134 12.0378 144.561 13.6524 144.611 16.8817V25.831H141.585V17.0569C141.585 16.1975 141.398 15.5633 141.025 15.1544C140.66 14.7372 140.058 14.5286 139.22 14.5286C138 14.5286 137.091 15.0835 136.493 16.1933V25.831H133.467V12.2881H136.319ZM78.834 43.5601C78.6516 45.5043 77.9376 47.0231 76.6929 48.1162C75.4478 49.2007 73.7915 49.7434 71.7249 49.7434C70.2805 49.7434 69.0063 49.4011 67.9024 48.7169C66.8068 48.0243 65.9602 47.0439 65.3628 45.7757C64.7649 44.5074 64.4538 43.0344 64.4287 41.3572V39.6551C64.4287 37.9361 64.732 36.4216 65.3376 35.1115C65.9437 33.8014 66.8111 32.7918 67.9401 32.0825C69.077 31.3732 70.3884 31.0186 71.8744 31.0186C73.8747 31.0186 75.485 31.5652 76.705 32.6583C77.9255 33.7514 78.6351 35.2951 78.834 37.2894H75.6965C75.5474 35.9793 75.1653 35.0364 74.5514 34.4606C73.9453 33.8765 73.0528 33.5845 71.8744 33.5845C70.5049 33.5845 69.4504 34.0893 68.7117 35.099C67.9813 36.1003 67.6078 37.5731 67.5914 39.5175V41.132C67.5914 43.1011 67.9401 44.6032 68.6372 45.638C69.3425 46.6725 70.3719 47.1899 71.7249 47.1899C72.9618 47.1899 73.8911 46.9103 74.5137 46.3514C75.1363 45.7922 75.5305 44.8619 75.6965 43.5601H78.834ZM80.8013 42.5963C80.8013 41.2696 81.063 40.0763 81.5859 39.0167C82.1088 37.9486 82.8432 37.1308 83.7894 36.5634C84.7356 35.9877 85.823 35.6998 87.0517 35.6998C88.8696 35.6998 90.3426 36.288 91.4716 37.4646C92.6089 38.6411 93.2228 40.2017 93.3142 42.1459L93.3268 42.8593C93.3268 44.1943 93.0694 45.3876 92.5547 46.439C92.0483 47.4904 91.3179 48.304 90.3634 48.8797C89.4172 49.4555 88.3215 49.7434 87.0764 49.7434C85.1758 49.7434 83.6525 49.1092 82.507 47.841C81.3702 46.564 80.8013 44.8659 80.8013 42.7465V42.5963ZM83.8271 42.8593C83.8271 44.2526 84.1134 45.3458 84.6858 46.1385C85.2585 46.9229 86.0557 47.3153 87.0764 47.3153C88.0975 47.3153 88.89 46.9146 89.4545 46.1136C90.0272 45.3123 90.3136 44.1402 90.3136 42.5963C90.3136 41.2278 90.019 40.1433 89.4298 39.3421C88.8488 38.541 88.056 38.1405 87.0517 38.1405C86.0639 38.1405 85.2793 38.5368 84.6983 39.3296C84.1174 40.1138 83.8271 41.2905 83.8271 42.8593ZM98.7302 35.9501L98.8173 37.3645C99.7639 36.2547 101.058 35.6998 102.702 35.6998C104.503 35.6998 105.736 36.3924 106.4 37.7775C107.379 36.3924 108.757 35.6998 110.533 35.6998C112.019 35.6998 113.123 36.1128 113.846 36.9389C114.576 37.765 114.949 38.9833 114.966 40.5937V49.493H111.941V40.6812C111.941 39.8219 111.754 39.1919 111.38 38.7914C111.007 38.3908 110.388 38.1905 109.525 38.1905C108.836 38.1905 108.271 38.3783 107.832 38.7538C107.4 39.1209 107.097 39.605 106.923 40.2056L106.935 49.493H103.91V40.5811C103.868 38.9874 103.059 38.1905 101.482 38.1905C100.27 38.1905 99.4108 38.6871 98.9047 39.68V49.493H95.879V35.9501H98.7302ZM129.869 42.8593C129.869 44.9538 129.396 46.6267 128.45 47.8784C127.503 49.1215 126.234 49.7434 124.64 49.7434C123.162 49.7434 121.98 49.2552 121.092 48.2787V54.6998H118.066V35.9501H120.855L120.98 37.3269C121.868 36.2421 123.075 35.6998 124.602 35.6998C126.246 35.6998 127.533 36.3173 128.462 37.5522C129.4 38.7788 129.869 40.4852 129.869 42.6716V42.8593ZM126.856 42.5963C126.856 41.2444 126.586 40.1725 126.047 39.3796C125.516 38.5869 124.752 38.1905 123.756 38.1905C122.519 38.1905 121.631 38.7037 121.092 39.73V45.7382C121.64 46.7896 122.536 47.3153 123.781 47.3153C124.744 47.3153 125.495 46.9272 126.034 46.1511C126.582 45.3667 126.856 44.1816 126.856 42.5963ZM140.489 49.493C140.357 49.2343 140.241 48.8131 140.141 48.2286C139.178 49.2386 138 49.7434 136.605 49.7434C135.252 49.7434 134.148 49.3553 133.293 48.5792C132.438 47.8031 132.011 46.8436 132.011 45.7003C132.011 44.257 132.542 43.1512 133.604 42.3837C134.675 41.6076 136.203 41.2196 138.186 41.2196H140.041V40.331C140.041 39.6299 139.847 39.0709 139.456 38.6537C139.066 38.2281 138.473 38.0153 137.676 38.0153C136.987 38.0153 136.423 38.1905 135.982 38.541C135.543 38.8831 135.323 39.3212 135.323 39.8554H132.297C132.297 39.1126 132.542 38.42 133.032 37.7775C133.522 37.1267 134.185 36.6177 135.024 36.2505C135.871 35.8833 136.813 35.6998 137.85 35.6998C139.427 35.6998 140.685 36.1003 141.623 36.9014C142.561 37.6941 143.042 38.8122 143.067 40.2557V46.3637C143.067 47.5823 143.237 48.5544 143.578 49.28V49.493H140.489ZM137.165 47.3027C137.763 47.3027 138.323 47.1567 138.846 46.8645C139.377 46.5723 139.776 46.1803 140.041 45.6881V43.1346H138.41C137.29 43.1346 136.447 43.3306 135.883 43.723C135.318 44.115 135.036 44.6699 135.036 45.3876C135.036 45.9717 135.227 46.439 135.609 46.7896C135.999 47.1315 136.518 47.3027 137.165 47.3027ZM149.043 35.9501L149.13 37.5147C150.126 36.3047 151.434 35.6998 153.052 35.6998C155.858 35.6998 157.285 37.3144 157.335 40.5436V49.493H154.31V40.7187C154.31 39.8594 154.123 39.2252 153.75 38.8164C153.384 38.3992 152.783 38.1905 151.944 38.1905C150.724 38.1905 149.815 38.7455 149.218 39.8554V49.493H146.192V35.9501H149.043ZM165.142 45.1372L167.881 35.9501H171.106L165.752 51.5456C164.93 53.8235 163.536 54.9628 161.568 54.9628C161.129 54.9628 160.643 54.8875 160.112 54.7373V52.3845L160.685 52.4219C161.448 52.4219 162.021 52.28 162.403 51.9964C162.793 51.7207 163.1 51.2538 163.324 50.5944L163.76 49.4303L159.029 35.9501H162.291L165.142 45.1372Z" fill="#02265A"/>
</svg>
