<svg width="110" height="36" viewBox="0 0 110 36" fill="none" xmlns="http://www.w3.org/2000/svg">
<g clip-path="url(#clip0_103_47)">
<path d="M17.7098 0C7.92915 0 0 8.02592 0 17.926C0 27.8258 7.92915 35.8519 17.7098 35.8519C27.4905 35.8519 35.4195 27.8258 35.4195 17.926C35.4195 8.02592 27.4905 0 17.7098 0ZM17.7098 32.9069C9.53578 32.9069 2.90926 26.1996 2.90926 17.9259C2.90926 9.65208 9.53578 2.94478 17.7098 2.94478C25.8839 2.94478 32.5104 9.65215 32.5104 17.9259C32.5104 26.1996 25.8839 32.9069 17.7098 32.9069ZM24.3943 17.4598C24.9615 16.6494 25.3 15.6351 25.3 14.533C25.3 11.8812 23.3457 9.73133 20.936 9.73133C20.7431 9.73133 20.5086 9.73133 20.2404 9.73133V6.01816C20.2404 5.80674 20.0694 5.63429 19.8611 5.63429H18.5952C18.3863 5.63429 18.216 5.80737 18.216 6.01816V9.73133H16.1921V6.01816C16.1921 5.80674 16.0211 5.63429 15.8129 5.63429H14.5481C14.3392 5.63429 14.1689 5.80737 14.1689 6.01816V9.73133H9.99424C9.78474 9.73133 9.615 9.90314 9.615 10.1152V11.4084C9.615 11.6062 9.76094 11.7775 9.95572 11.7954C11.3811 11.9276 12.145 12.8956 12.145 14.0849V22.0236C12.145 23.0937 11.5996 23.9429 10.4076 24.0591C10.2384 24.0759 10.098 24.1976 10.0663 24.367L9.82442 25.6724C9.78105 25.9055 9.95814 26.1214 10.1927 26.1214H14.1676V29.8345C14.1676 30.0459 14.3386 30.2183 14.5469 30.2183H15.8116C16.0204 30.2183 16.1909 30.0454 16.1909 29.8345V26.1214H18.2147V29.8345C18.2147 30.0459 18.3857 30.2183 18.594 30.2183H19.8586C20.0675 30.2183 20.2379 30.0454 20.2379 29.8345V26.1214C20.9549 26.1214 21.5502 26.1214 21.9454 26.1214C24.3558 26.1214 26.3092 24.0005 26.3092 21.384C26.3117 19.7507 25.5517 18.3117 24.3943 17.4598ZM16.1916 12.804C16.1916 12.804 18.1378 12.804 19.2907 12.804C20.4438 12.804 21.378 13.7497 21.378 14.9168C21.378 16.0838 20.4438 17.0296 19.2907 17.0296C18.1378 17.0296 16.1916 17.0296 16.1916 17.0296V12.804ZM20.3026 23.1757C19.1497 23.1757 16.1916 23.1757 16.1916 23.1757V18.9503C16.1916 18.9503 19.1497 18.9503 20.3026 18.9503C21.4557 18.9503 22.3899 19.8959 22.3899 21.063C22.3899 22.2299 21.4557 23.1757 20.3026 23.1757Z" fill="#10D7FF"/>
<path d="M41.3305 16.5373V4.87006H45.281C46.5845 4.87006 47.5768 5.13448 48.2575 5.66337C48.9384 6.19223 49.2787 6.98019 49.2787 8.02724C49.2787 8.56146 49.1362 9.04225 48.8514 9.46962C48.5663 9.89699 48.1495 10.2282 47.6005 10.4633C48.2233 10.6342 48.7035 10.9574 49.0412 11.4329C49.3844 11.903 49.5558 12.4692 49.5558 13.1317C49.5558 14.2268 49.2076 15.0682 48.5109 15.6558C47.8195 16.2435 46.8272 16.5373 45.5342 16.5373H41.3305ZM43.3334 11.2726V14.9186H45.5581C46.1859 14.9186 46.6768 14.761 47.0305 14.4458C47.384 14.1306 47.5608 13.6926 47.5608 13.1317C47.5608 11.919 46.9487 11.2993 45.7242 11.2726H43.3334ZM43.3334 9.78214H45.2967C45.9196 9.78214 46.4052 9.64058 46.7534 9.35745C47.1071 9.06897 47.2837 8.66296 47.2837 8.13944C47.2837 7.56248 47.1203 7.14579 46.7931 6.88938C46.471 6.63296 45.9669 6.50475 45.281 6.50475H43.3334V9.78214ZM53.4193 16.5373H51.4954V7.86699H53.4193V16.5373ZM51.3766 5.61527C51.3766 5.31611 51.4689 5.0677 51.6538 4.87006C51.8438 4.67239 52.113 4.57355 52.4612 4.57355C52.8096 4.57355 53.0788 4.67239 53.2688 4.87006C53.4587 5.0677 53.5537 5.31611 53.5537 5.61527C53.5537 5.9091 53.4587 6.15484 53.2688 6.35248C53.0788 6.54482 52.8096 6.64096 52.4612 6.64096C52.113 6.64096 51.8438 6.54482 51.6538 6.35248C51.4689 6.15484 51.3766 5.9091 51.3766 5.61527ZM57.9315 5.75951V7.86699H59.4436V9.30938H57.9315V14.1494C57.9315 14.4806 57.9949 14.721 58.1216 14.8705C58.2535 15.0148 58.4857 15.0869 58.8182 15.0869C59.04 15.0869 59.2642 15.0602 59.4912 15.0068V16.5133C59.0532 16.6361 58.6309 16.6976 58.2246 16.6976C56.7467 16.6976 56.0079 15.8722 56.0079 14.2215V9.30938H54.5988V7.86699H56.0079V5.75951H57.9315ZM69.9015 12.739C69.7853 13.9838 69.3316 14.956 68.5399 15.6558C67.7482 16.3503 66.6953 16.6976 65.3811 16.6976C64.4629 16.6976 63.6527 16.4785 62.9508 16.0405C62.2542 15.5971 61.7156 14.9694 61.3358 14.1574C60.9556 13.3454 60.7578 12.4025 60.7421 11.3287V10.2389C60.7421 9.13842 60.9347 8.16883 61.3198 7.3301C61.7052 6.49139 62.2567 5.845 62.9745 5.39092C63.6974 4.93681 64.5315 4.70978 65.4761 4.70978C66.748 4.70978 67.7719 5.05969 68.5476 5.75951C69.3236 6.45933 69.7748 7.44763 69.9015 8.72441H67.9066C67.8115 7.88568 67.5688 7.28203 67.1782 6.91341C66.7929 6.53947 66.2256 6.35248 65.4761 6.35248C64.6053 6.35248 63.9351 6.6757 63.4654 7.3221C63.001 7.96314 62.7633 8.90604 62.7528 10.1508V11.1845C62.7528 12.4452 62.9745 13.4068 63.4178 14.0692C63.8665 14.7316 64.5208 15.0629 65.3811 15.0629C66.1675 15.0629 66.7587 14.8839 67.1545 14.526C67.5501 14.168 67.8008 13.5724 67.9066 12.739H69.9015ZM71.1522 12.122C71.1522 11.2726 71.3186 10.5087 71.6511 9.83024C71.9836 9.14643 72.4505 8.62291 73.0524 8.25965C73.654 7.89103 74.3452 7.70672 75.1264 7.70672C76.2823 7.70672 77.2189 8.08334 77.9368 8.83659C78.6599 9.58983 79.0505 10.5888 79.1084 11.8335L79.1163 12.2903C79.1163 13.145 78.9527 13.9089 78.6255 14.5821C78.3037 15.2552 77.8393 15.776 77.2321 16.1446C76.6305 16.5133 75.9338 16.6976 75.1421 16.6976C73.9336 16.6976 72.9651 16.2915 72.237 15.4795C71.5139 14.6622 71.1522 13.5751 71.1522 12.2182V12.122ZM73.0761 12.2903C73.0761 13.1824 73.2582 13.8822 73.6223 14.3897C73.9865 14.8919 74.4931 15.143 75.1421 15.143C75.7914 15.143 76.2955 14.8866 76.6542 14.3737C77.0184 13.8609 77.2005 13.1103 77.2005 12.122C77.2005 11.2459 77.0131 10.5514 76.6385 10.0386C76.2691 9.52572 75.765 9.26931 75.1264 9.26931C74.4983 9.26931 73.9997 9.52305 73.6301 10.0306C73.2607 10.5327 73.0761 11.2859 73.0761 12.2903ZM82.7898 16.5373H80.8659V7.86699H82.7898V16.5373ZM80.7471 5.61527C80.7471 5.31611 80.8394 5.0677 81.0243 4.87006C81.2143 4.67239 81.4835 4.57355 81.8317 4.57355C82.1801 4.57355 82.4493 4.67239 82.6393 4.87006C82.8292 5.0677 82.9242 5.31611 82.9242 5.61527C82.9242 5.9091 82.8292 6.15484 82.6393 6.35248C82.4493 6.54482 82.1801 6.64096 81.8317 6.64096C81.4835 6.64096 81.2143 6.54482 81.0243 6.35248C80.8394 6.15484 80.7471 5.9091 80.7471 5.61527ZM86.6767 7.86699L86.732 8.86865C87.3653 8.09402 88.1967 7.70672 89.2259 7.70672C91.0098 7.70672 91.9175 8.74044 91.9492 10.8078V16.5373H90.0253V10.92C90.0253 10.3698 89.9066 9.96377 89.6691 9.702C89.4369 9.43491 89.0543 9.30135 88.5212 9.30135C87.7455 9.30135 87.1675 9.65661 86.7874 10.3671V16.5373H84.8638V7.86699H86.6767ZM50.1257 27.8877C50.0098 29.1324 49.5558 30.1047 48.7643 30.8046C47.9726 31.4989 46.9195 31.8463 45.6055 31.8463C44.6871 31.8463 43.8769 31.6271 43.175 31.1891C42.4784 30.7457 41.9401 30.1181 41.5602 29.3061C41.1801 28.4941 40.9823 27.5511 40.9663 26.4773V25.3876C40.9663 24.2871 41.1591 23.3175 41.5442 22.4788C41.9296 21.6401 42.4811 20.9937 43.199 20.5396C43.9218 20.0855 44.7557 19.8585 45.7005 19.8585C46.9724 19.8585 47.9963 20.2084 48.7721 20.9082C49.5481 21.608 49.9993 22.5963 50.1257 23.8731H48.1308C48.036 23.0343 47.793 22.4307 47.4027 22.0621C47.0173 21.6881 46.4498 21.5012 45.7005 21.5012C44.8298 21.5012 44.1593 21.8244 43.6896 22.4708C43.2252 23.1118 42.9877 24.0547 42.9772 25.2995V26.3332C42.9772 27.5938 43.199 28.5555 43.6422 29.218C44.0907 29.8802 44.7452 30.2115 45.6055 30.2115C46.392 30.2115 46.9829 30.0325 47.3787 29.6747C47.7746 29.3167 48.0253 28.7211 48.1308 27.8877H50.1257ZM51.3766 27.2706C51.3766 26.4213 51.543 25.6573 51.8755 24.9789C52.208 24.2951 52.6749 23.7716 53.2766 23.4083C53.8782 23.0397 54.5696 22.8554 55.3509 22.8554C56.5067 22.8554 57.4434 23.232 58.1612 23.9853C58.8843 24.7385 59.2747 25.7376 59.3328 26.9823L59.3408 27.439C59.3408 28.2937 59.1772 29.0577 58.8499 29.7308C58.5279 30.4039 58.0635 30.9247 57.4566 31.2934C56.8549 31.662 56.1583 31.8463 55.3666 31.8463C54.1581 31.8463 53.1895 31.4403 52.4612 30.6283C51.7383 29.8108 51.3766 28.7236 51.3766 27.3668V27.2706ZM53.3005 27.439C53.3005 28.331 53.4826 29.0309 53.8465 29.5384C54.2107 30.0406 54.7176 30.2918 55.3666 30.2918C56.0159 30.2918 56.5197 30.0353 56.8786 29.5225C57.2428 29.0094 57.4249 28.2591 57.4249 27.2706C57.4249 26.3945 57.2376 25.7002 56.8629 25.1873C56.4935 24.6744 55.9894 24.418 55.3509 24.418C54.7228 24.418 54.2239 24.6717 53.8545 25.1792C53.4851 25.6813 53.3005 26.4347 53.3005 27.439ZM62.7765 23.0157L62.8319 23.9212C63.4337 23.2107 64.2569 22.8554 65.302 22.8554C66.4471 22.8554 67.2309 23.2988 67.6532 24.1856C68.276 23.2988 69.152 22.8554 70.2814 22.8554C71.2263 22.8554 71.9282 23.1198 72.3874 23.6487C72.8518 24.1776 73.0893 24.9575 73.0998 25.9885V31.686H71.1761V26.0446C71.1761 25.4944 71.0574 25.0911 70.8197 24.8347C70.5822 24.5782 70.1891 24.45 69.6401 24.45C69.2021 24.45 68.8432 24.5702 68.5636 24.8106C68.2892 25.0457 68.0964 25.3556 67.9856 25.7401L67.9936 31.686H66.0698V25.9805C66.0436 24.9602 65.529 24.45 64.526 24.45C63.7555 24.45 63.2093 24.7679 62.8875 25.4036V31.686H60.9636V23.0157H62.7765ZM82.576 27.439C82.576 28.7799 82.2752 29.8509 81.6735 30.6523C81.0717 31.4481 80.2642 31.8463 79.251 31.8463C78.3114 31.8463 77.5594 31.5337 76.9947 30.9086V35.0194H75.071V23.0157H76.8443L76.9236 23.8971C77.4883 23.2026 78.2561 22.8554 79.2271 22.8554C80.2722 22.8554 81.0901 23.2507 81.6813 24.0414C82.2777 24.8266 82.576 25.9191 82.576 27.3188V27.439ZM80.6601 27.2706C80.6601 26.4051 80.4885 25.7189 80.1455 25.2113C79.8078 24.7038 79.3221 24.45 78.6888 24.45C77.9026 24.45 77.3379 24.7786 76.9947 25.4356V29.2821C77.3431 29.9552 77.9131 30.2918 78.7048 30.2918C79.3169 30.2918 79.7946 30.0433 80.1375 29.5465C80.486 29.0443 80.6601 28.2856 80.6601 27.2706ZM89.3286 31.686C89.2443 31.5203 89.1705 31.2507 89.1071 30.8765C88.4948 31.5231 87.7455 31.8463 86.8587 31.8463C85.9985 31.8463 85.2966 31.5978 84.753 31.101C84.2093 30.6041 83.9376 29.9898 83.9376 29.2579C83.9376 28.3338 84.2754 27.6259 84.9508 27.1345C85.6318 26.6377 86.6028 26.3892 87.8642 26.3892H89.0438V25.8204C89.0438 25.3715 88.9198 25.0136 88.6716 24.7465C88.4237 24.4741 88.0463 24.3378 87.5397 24.3378C87.1015 24.3378 86.7428 24.45 86.4629 24.6744C86.1833 24.8934 86.0434 25.1739 86.0434 25.5159H84.1197C84.1197 25.0403 84.2754 24.5969 84.5867 24.1856C84.8982 23.7689 85.3202 23.443 85.8533 23.208C86.3918 22.9729 86.9907 22.8554 87.6505 22.8554C88.6532 22.8554 89.4529 23.1118 90.0493 23.6247C90.6456 24.1322 90.9517 24.848 90.9674 25.7722V29.6825C90.9674 30.4627 91.0757 31.0851 91.2922 31.5496V31.686H89.3286ZM87.2149 30.2837C87.5951 30.2837 87.9513 30.1903 88.2838 30.0032C88.6215 29.8161 88.8749 29.5651 89.0438 29.25V27.6153H88.0066C87.2943 27.6153 86.7585 27.7407 86.3995 27.992C86.0406 28.2429 85.8613 28.5982 85.8613 29.0577C85.8613 29.4316 85.9827 29.7308 86.2254 29.9552C86.4736 30.1741 86.8034 30.2837 87.2149 30.2837ZM94.7675 23.0157L94.8229 24.0173C95.4562 23.2427 96.2873 22.8554 97.3165 22.8554C99.1004 22.8554 100.008 23.8891 100.04 25.9565V31.686H98.1162V26.0686C98.1162 25.5184 97.9974 25.1124 97.76 24.8507C97.5278 24.5836 97.1451 24.45 96.6121 24.45C95.8361 24.45 95.2582 24.8053 94.8783 25.5159V31.686H92.9546V23.0157H94.7675ZM105.004 28.8973L106.745 23.0157H108.796L105.391 33.0001C104.869 34.4584 103.982 35.1878 102.731 35.1878C102.452 35.1878 102.143 35.1396 101.805 35.0434V33.5371L102.169 33.5611C102.655 33.5611 103.019 33.4702 103.262 33.2887C103.51 33.1122 103.705 32.8133 103.848 32.3911L104.125 31.6458L101.117 23.0157H103.191L105.004 28.8973Z" fill="white"/>
</g>
<defs>
<clipPath id="clip0_103_47">
<rect width="110" height="35.8519" fill="white"/>
</clipPath>
</defs>
</svg>
