<svg width="245" height="78" viewBox="0 0 245 78" fill="none" xmlns="http://www.w3.org/2000/svg">
<path d="M39.4444 0C17.6604 0 0 17.4613 0 39.0001C0 60.5384 17.6604 78 39.4444 78C61.2289 78 78.8889 60.5384 78.8889 39.0001C78.8889 17.4613 61.2289 0 39.4444 0ZM39.4444 71.593C21.2388 71.593 6.47972 57.0004 6.47972 38.9999C6.47972 20.9992 21.2388 6.40671 39.4444 6.40671C57.6506 6.40671 72.4095 20.9994 72.4095 38.9999C72.4095 57.0004 57.6506 71.593 39.4444 71.593ZM54.3327 37.9859C55.5961 36.2228 56.35 34.016 56.35 31.6182C56.35 25.8489 51.9973 21.1717 46.6303 21.1717C46.2006 21.1717 45.6782 21.1717 45.0809 21.1717V13.0932C45.0809 12.6333 44.7001 12.2581 44.2362 12.2581H41.4167C40.9514 12.2581 40.572 12.6346 40.572 13.0932V21.1717H36.0643V13.0932C36.0643 12.6333 35.6834 12.2581 35.2196 12.2581H32.4027C31.9374 12.2581 31.5579 12.6346 31.5579 13.0932V21.1717H22.2599C21.7933 21.1717 21.4152 21.5455 21.4152 22.0069V24.8203C21.4152 25.2506 21.7403 25.6233 22.1741 25.6622C25.3488 25.9499 27.0502 28.056 27.0502 30.6434V47.9151C27.0502 50.243 25.8355 52.0906 23.1806 52.3435C22.8038 52.3799 22.4909 52.6447 22.4203 53.0134L21.8817 55.8535C21.7851 56.3605 22.1795 56.8301 22.7019 56.8301H31.5552V64.9086C31.5552 65.3684 31.936 65.7436 32.3998 65.7436H35.2168C35.6818 65.7436 36.0614 65.3673 36.0614 64.9086V56.8301H40.5692V64.9086C40.5692 65.3684 40.95 65.7436 41.4139 65.7436H44.2306C44.6958 65.7436 45.0753 65.3673 45.0753 64.9086V56.8301C46.6723 56.8301 47.9982 56.8301 48.8785 56.8301C54.2471 56.8301 58.5978 52.216 58.5978 46.5234C58.6033 42.9699 56.9106 39.8392 54.3327 37.9859ZM36.0631 27.8567C36.0631 27.8567 40.3978 27.8567 42.9657 27.8567C45.5339 27.8567 47.6146 29.9142 47.6146 32.4534C47.6146 34.9923 45.5339 37.0499 42.9657 37.0499C40.3978 37.0499 36.0631 37.0499 36.0631 37.0499V27.8567ZM45.2195 50.4216C42.6516 50.4216 36.0631 50.4216 36.0631 50.4216V41.2285C36.0631 41.2285 42.6516 41.2285 45.2195 41.2285C47.7878 41.2285 49.8684 43.2859 49.8684 45.8251C49.8684 48.3638 47.7878 50.4216 45.2195 50.4216Z" fill="#10D7FF"/>
<path d="M92.0059 35.9789V10.5954H100.805C103.708 10.5954 105.918 11.1707 107.434 12.3214C108.951 13.472 109.709 15.1863 109.709 17.4643C109.709 18.6265 109.391 19.6725 108.757 20.6023C108.122 21.5321 107.194 22.2527 105.971 22.7641C107.358 23.1361 108.428 23.8392 109.18 24.8736C109.944 25.8964 110.326 27.1284 110.326 28.5695C110.326 30.9522 109.55 32.7827 107.999 34.0612C106.459 35.3397 104.249 35.9789 101.369 35.9789H92.0059ZM96.4671 24.5249V32.4573H101.422C102.82 32.4573 103.914 32.1144 104.701 31.4287C105.489 30.7429 105.883 29.7899 105.883 28.5695C105.883 25.9313 104.519 24.583 101.792 24.5249H96.4671ZM96.4671 21.2822H100.84C102.227 21.2822 103.309 20.9743 104.084 20.3583C104.872 19.7307 105.265 18.8473 105.265 17.7084C105.265 16.4531 104.901 15.5466 104.173 14.9887C103.455 14.4308 102.333 14.1519 100.805 14.1519H96.4671V21.2822ZM118.931 35.9789H114.646V17.1156H118.931V35.9789ZM114.381 12.2167C114.381 11.5659 114.587 11.0254 114.999 10.5954C115.422 10.1654 116.021 9.95033 116.797 9.95033C117.573 9.95033 118.173 10.1654 118.596 10.5954C119.019 11.0254 119.23 11.5659 119.23 12.2167C119.23 12.856 119.019 13.3906 118.596 13.8206C118.173 14.2391 117.573 14.4482 116.797 14.4482C116.021 14.4482 115.422 14.2391 114.999 13.8206C114.587 13.3906 114.381 12.856 114.381 12.2167ZM128.981 12.5305V17.1156H132.349V20.2537H128.981V30.7836C128.981 31.5042 129.122 32.0272 129.404 32.3526C129.698 32.6665 130.215 32.8234 130.956 32.8234C131.45 32.8234 131.949 32.7653 132.455 32.649V35.9266C131.479 36.1939 130.539 36.3276 129.634 36.3276C126.342 36.3276 124.696 34.5319 124.696 30.9405V20.2537H121.558V17.1156H124.696V12.5305H128.981ZM155.642 27.7153C155.383 30.4234 154.372 32.5386 152.609 34.0612C150.845 35.5721 148.5 36.3276 145.573 36.3276C143.528 36.3276 141.724 35.8511 140.16 34.898C138.609 33.9333 137.409 32.5677 136.563 30.8011C135.716 29.0345 135.276 26.9831 135.241 24.647V22.276C135.241 19.8818 135.67 17.7723 136.528 15.9475C137.386 14.1228 138.614 12.7165 140.213 11.7286C141.823 10.7407 143.681 10.2467 145.785 10.2467C148.618 10.2467 150.898 11.008 152.626 12.5305C154.354 14.0531 155.359 16.2032 155.642 18.981H151.198C150.987 17.1563 150.446 15.843 149.576 15.041C148.718 14.2274 147.454 13.8206 145.785 13.8206C143.845 13.8206 142.353 14.5238 141.306 15.9301C140.272 17.3248 139.743 19.3762 139.719 22.0842V24.3331C139.719 27.0761 140.213 29.1681 141.2 30.6093C142.2 32.0505 143.657 32.7711 145.573 32.7711C147.325 32.7711 148.641 32.3817 149.523 31.603C150.404 30.8243 150.963 29.5284 151.198 27.7153H155.642ZM158.427 26.3729C158.427 24.5249 158.798 22.8629 159.538 21.3869C160.279 19.8992 161.319 18.7602 162.659 17.9699C163.999 17.1679 165.539 16.7669 167.279 16.7669C169.853 16.7669 171.939 17.5863 173.538 19.2251C175.149 20.8639 176.019 23.0372 176.148 25.7453L176.165 26.739C176.165 28.5986 175.801 30.2606 175.072 31.7251C174.355 33.1895 173.321 34.3227 171.969 35.1246C170.629 35.9266 169.077 36.3276 167.314 36.3276C164.622 36.3276 162.465 35.4443 160.843 33.6776C159.233 31.8994 158.427 29.5342 158.427 26.5821V26.3729ZM162.712 26.739C162.712 28.6799 163.118 30.2025 163.929 31.3066C164.74 32.3992 165.868 32.9454 167.314 32.9454C168.76 32.9454 169.883 32.3875 170.681 31.2718C171.493 30.156 171.898 28.5231 171.898 26.3729C171.898 24.4668 171.481 22.9559 170.647 21.8402C169.824 20.7244 168.701 20.1665 167.279 20.1665C165.88 20.1665 164.769 20.7186 163.946 21.8227C163.123 22.9152 162.712 24.554 162.712 26.739ZM184.347 35.9789H180.062V17.1156H184.347V35.9789ZM179.798 12.2167C179.798 11.5659 180.003 11.0254 180.415 10.5954C180.838 10.1654 181.438 9.95033 182.213 9.95033C182.989 9.95033 183.589 10.1654 184.012 10.5954C184.435 11.0254 184.647 11.5659 184.647 12.2167C184.647 12.856 184.435 13.3906 184.012 13.8206C183.589 14.2391 182.989 14.4482 182.213 14.4482C181.438 14.4482 180.838 14.2391 180.415 13.8206C180.003 13.3906 179.798 12.856 179.798 12.2167ZM193.004 17.1156L193.128 19.2948C194.538 17.6095 196.39 16.7669 198.682 16.7669C202.655 16.7669 204.677 19.0159 204.748 23.5138V35.9789H200.463V23.7579C200.463 22.5607 200.198 21.6774 199.669 21.1079C199.152 20.5268 198.3 20.2362 197.113 20.2362C195.385 20.2362 194.098 21.0091 193.251 22.5549V35.9789H188.967V17.1156H193.004ZM111.595 60.673C111.337 63.3811 110.326 65.4964 108.563 67.0191C106.8 68.5296 104.454 69.2854 101.528 69.2854C99.482 69.2854 97.6776 68.8087 96.1143 67.8556C94.5626 66.8911 93.3637 65.5255 92.5176 63.759C91.6709 61.9924 91.2304 59.9408 91.1948 57.6047V55.2339C91.1948 52.8395 91.6243 50.7301 92.482 48.9053C93.3404 47.0806 94.5687 45.6743 96.1676 44.6864C97.7776 43.6984 99.6348 43.2045 101.739 43.2045C104.572 43.2045 106.853 43.9658 108.58 45.4883C110.309 47.0108 111.314 49.161 111.595 51.9388H107.152C106.941 50.114 106.4 48.8007 105.53 47.9987C104.672 47.1852 103.408 46.7784 101.739 46.7784C99.7998 46.7784 98.3065 47.4816 97.2604 48.8879C96.2259 50.2826 95.697 52.334 95.6737 55.0422V57.291C95.6737 60.0337 96.1676 62.1259 97.1548 63.5673C98.1537 65.0081 99.6115 65.7288 101.528 65.7288C103.279 65.7288 104.595 65.3393 105.477 64.5609C106.359 63.782 106.917 62.4863 107.152 60.673H111.595ZM114.381 59.3306C114.381 57.4827 114.752 55.8205 115.493 54.3446C116.233 52.8569 117.273 51.718 118.613 50.9276C119.953 50.1257 121.493 49.7247 123.233 49.7247C125.808 49.7247 127.894 50.5441 129.493 52.1828C131.103 53.8216 131.973 55.9952 132.102 58.7033L132.12 59.6969C132.12 61.5563 131.755 63.2185 131.027 64.6829C130.309 66.1473 129.275 67.2805 127.923 68.0825C126.583 68.8845 125.031 69.2854 123.268 69.2854C120.576 69.2854 118.419 68.4022 116.797 66.6356C115.187 64.857 114.381 62.4917 114.381 59.5398V59.3306ZM118.666 59.6969C118.666 61.6376 119.072 63.1602 119.883 64.2643C120.694 65.3569 121.823 65.9034 123.268 65.9034C124.714 65.9034 125.836 65.3453 126.636 64.2297C127.447 63.1136 127.853 61.481 127.853 59.3306C127.853 57.4245 127.435 55.9139 126.601 54.7979C125.778 53.6821 124.655 53.1243 123.233 53.1243C121.834 53.1243 120.723 53.6763 119.9 54.7805C119.078 55.8727 118.666 57.5118 118.666 59.6969ZM139.772 50.0734L139.895 52.0434C141.236 50.4976 143.069 49.7247 145.397 49.7247C147.948 49.7247 149.693 50.6894 150.634 52.6187C152.021 50.6894 153.972 49.7247 156.488 49.7247C158.592 49.7247 160.155 50.3 161.178 51.4506C162.213 52.6012 162.741 54.2981 162.765 56.5412V68.9366H158.48V56.6632C158.48 55.4663 158.216 54.5887 157.687 54.0308C157.158 53.4729 156.282 53.194 155.059 53.194C154.084 53.194 153.284 53.4555 152.662 53.9785C152.05 54.4899 151.621 55.1641 151.374 56.0007L151.392 68.9366H147.107V56.5237C147.049 54.3039 145.903 53.194 143.669 53.194C141.953 53.194 140.736 53.8855 140.019 55.2685V68.9366H135.734V50.0734H139.772ZM183.871 59.6969C183.871 62.6142 183.201 64.9444 181.861 66.6878C180.52 68.4192 178.722 69.2854 176.465 69.2854C174.373 69.2854 172.698 68.6054 171.44 67.2454V76.189H167.155V50.0734H171.105L171.282 51.9911C172.539 50.4801 174.249 49.7247 176.412 49.7247C178.74 49.7247 180.562 50.5848 181.878 52.3049C183.207 54.0134 183.871 56.3902 183.871 59.4355V59.6969ZM179.604 59.3306C179.604 57.4476 179.222 55.9546 178.458 54.8502C177.705 53.7461 176.624 53.194 175.213 53.194C173.462 53.194 172.204 53.9088 171.44 55.3383V63.7068C172.216 65.1712 173.485 65.9034 175.249 65.9034C176.612 65.9034 177.676 65.3629 178.44 64.2819C179.216 63.1894 179.604 61.5387 179.604 59.3306ZM198.911 68.9366C198.723 68.5763 198.559 67.9897 198.418 67.1756C197.054 68.5823 195.385 69.2854 193.41 69.2854C191.494 69.2854 189.93 68.7449 188.72 67.6639C187.509 66.5829 186.904 65.2465 186.904 63.6541C186.904 61.6436 187.656 60.1034 189.16 59.0345C190.677 57.9535 192.84 57.413 195.649 57.413H198.277V56.1754C198.277 55.1987 198 54.4202 197.448 53.839C196.895 53.2463 196.055 52.9499 194.927 52.9499C193.95 52.9499 193.152 53.194 192.528 53.6821C191.905 54.1587 191.594 54.7689 191.594 55.5129H187.309C187.309 54.4783 187.656 53.5136 188.349 52.6187C189.043 51.7121 189.983 51.0032 191.17 50.4918C192.37 49.9804 193.704 49.7247 195.173 49.7247C197.407 49.7247 199.188 50.2825 200.516 51.3983C201.844 52.5025 202.526 54.0599 202.561 56.0705V64.578C202.561 66.2753 202.802 67.6293 203.284 68.64V68.9366H198.911ZM194.203 65.8858C195.05 65.8858 195.843 65.6826 196.584 65.2756C197.336 64.8686 197.9 64.3226 198.277 63.637V60.0803H195.966C194.38 60.0803 193.187 60.3533 192.387 60.8999C191.588 61.4459 191.188 62.2188 191.188 63.2185C191.188 64.032 191.459 64.6829 191.999 65.1712C192.552 65.6475 193.287 65.8858 194.203 65.8858ZM211.025 50.0734L211.148 52.2526C212.559 50.5673 214.41 49.7247 216.702 49.7247C220.675 49.7247 222.697 51.9737 222.768 56.4715V68.9366H218.483V56.7154C218.483 55.5184 218.219 54.6352 217.69 54.0657C217.173 53.4846 216.32 53.194 215.133 53.194C213.405 53.194 212.118 53.9669 211.272 55.5129V68.9366H206.987V50.0734H211.025ZM233.823 62.8697L237.703 50.0734H242.269L234.687 71.7957C233.524 74.9685 231.549 76.5554 228.763 76.5554C228.14 76.5554 227.452 76.4505 226.7 76.2412V72.9641L227.511 73.0163C228.593 73.0163 229.404 72.8185 229.944 72.4236C230.497 72.0396 230.932 71.3892 231.249 70.4708L231.866 68.8493L225.166 50.0734H229.785L233.823 62.8697Z" fill="white"/>
</svg>
