<svg width="36" height="36" viewBox="0 0 36 36" fill="none" xmlns="http://www.w3.org/2000/svg">
<path d="M17.7098 0C7.92915 0 0 8.02592 0 17.926C0 27.8258 7.92915 35.8519 17.7098 35.8519C27.4905 35.8519 35.4195 27.8258 35.4195 17.926C35.4195 8.02592 27.4905 0 17.7098 0ZM17.7098 32.9069C9.53578 32.9069 2.90926 26.1996 2.90926 17.9259C2.90926 9.65208 9.53578 2.94478 17.7098 2.94478C25.8839 2.94478 32.5104 9.65215 32.5104 17.9259C32.5104 26.1996 25.8839 32.9069 17.7098 32.9069ZM24.3943 17.4598C24.9615 16.6494 25.3 15.6351 25.3 14.533C25.3 11.8812 23.3457 9.73133 20.936 9.73133C20.7431 9.73133 20.5086 9.73133 20.2404 9.73133V6.01816C20.2404 5.80674 20.0694 5.63429 19.8611 5.63429H18.5952C18.3863 5.63429 18.216 5.80737 18.216 6.01816V9.73133H16.1921V6.01816C16.1921 5.80674 16.0211 5.63429 15.8129 5.63429H14.5481C14.3392 5.63429 14.1689 5.80737 14.1689 6.01816V9.73133H9.99424C9.78474 9.73133 9.615 9.90314 9.615 10.1152V11.4084C9.615 11.6062 9.76094 11.7775 9.95572 11.7954C11.3811 11.9276 12.145 12.8956 12.145 14.0849V22.0236C12.145 23.0937 11.5996 23.9429 10.4076 24.0591C10.2384 24.0759 10.098 24.1976 10.0663 24.367L9.82442 25.6724C9.78105 25.9055 9.95814 26.1214 10.1927 26.1214H14.1676V29.8345C14.1676 30.0459 14.3386 30.2183 14.5469 30.2183H15.8116C16.0204 30.2183 16.1909 30.0454 16.1909 29.8345V26.1214H18.2147V29.8345C18.2147 30.0459 18.3857 30.2183 18.594 30.2183H19.8586C20.0675 30.2183 20.2379 30.0454 20.2379 29.8345V26.1214C20.9549 26.1214 21.5502 26.1214 21.9454 26.1214C24.3558 26.1214 26.3092 24.0005 26.3092 21.384C26.3117 19.7507 25.5517 18.3117 24.3943 17.4598ZM16.1916 12.804C16.1916 12.804 18.1378 12.804 19.2907 12.804C20.4438 12.804 21.378 13.7497 21.378 14.9168C21.378 16.0838 20.4438 17.0296 19.2907 17.0296C18.1378 17.0296 16.1916 17.0296 16.1916 17.0296V12.804ZM20.3026 23.1757C19.1497 23.1757 16.1916 23.1757 16.1916 23.1757V18.9503C16.1916 18.9503 19.1497 18.9503 20.3026 18.9503C21.4557 18.9503 22.3899 19.8959 22.3899 21.063C22.3899 22.2299 21.4557 23.1757 20.3026 23.1757Z" fill="#10D7FF"/>
</svg>
