<svg width="18" height="14" viewBox="0 0 18 14" fill="none" xmlns="http://www.w3.org/2000/svg">
<path d="M0 0.995C0 0.445 0.4014 0 0.8955 0H8.1045C8.342 7.86455e-09 8.56978 0.10483 8.73771 0.291429C8.90565 0.478027 9 0.73111 9 0.995C9 1.25889 8.90565 1.51197 8.73771 1.69857C8.56978 1.88517 8.342 1.99 8.1045 1.99H0.8955C0.657999 1.99 0.430225 1.88517 0.262286 1.69857C0.0943471 1.51197 0 1.25889 0 0.995V0.995Z" fill="white"/>
<path d="M0 7.00001C0 6.45001 0.4014 6.005 0.8955 6.005H17.1045C17.342 6.005 17.5698 6.10984 17.7377 6.29643C17.9057 6.48303 18 6.73612 18 7.00001C18 7.2639 17.9057 7.51698 17.7377 7.70358C17.5698 7.89018 17.342 7.99501 17.1045 7.99501H0.8955C0.657999 7.99501 0.430225 7.89018 0.262286 7.70358C0.0943471 7.51698 0 7.2639 0 7.00001V7.00001Z" fill="white"/>
<path d="M0.8955 12.01C0.657999 12.01 0.430225 12.1148 0.262286 12.3014C0.0943471 12.488 0 12.7411 0 13.005C0 13.2689 0.0943471 13.522 0.262286 13.7086C0.430225 13.8952 0.657999 14 0.8955 14H11.7045C11.942 14 12.1698 13.8952 12.3377 13.7086C12.5057 13.522 12.6 13.2689 12.6 13.005C12.6 12.7411 12.5057 12.488 12.3377 12.3014C12.1698 12.1148 11.942 12.01 11.7045 12.01H0.8955Z" fill="white"/>
</svg>
