<svg width="99" height="98" viewBox="0 0 99 98" fill="none" xmlns="http://www.w3.org/2000/svg">
<g opacity="0.1">
<path fill-rule="evenodd" clip-rule="evenodd" d="M9.84766 9H14.8477V84H89.8477V89H9.84766V9ZM59.8477 26.5C59.8477 25.837 60.111 25.2011 60.5799 24.7322C61.0487 24.2634 61.6846 24 62.3477 24H82.3477C83.0107 24 83.6466 24.2634 84.1154 24.7322C84.5843 25.2011 84.8477 25.837 84.8477 26.5V46.5C84.8477 47.163 84.5843 47.7989 84.1154 48.2678C83.6466 48.7366 83.0107 49 82.3477 49C81.6846 49 81.0487 48.7366 80.5799 48.2678C80.111 47.7989 79.8477 47.163 79.8477 46.5V33.5L61.7827 55.585C61.5615 55.8549 61.2863 56.0756 60.9747 56.2327C60.6632 56.3899 60.3222 56.4801 59.9737 56.4975C59.6251 56.5149 59.2768 56.4592 58.9512 56.3339C58.6255 56.2086 58.3296 56.0165 58.0827 55.77L45.1477 42.835L26.8677 67.97C26.4678 68.4785 25.8863 68.8122 25.2456 68.9009C24.6048 68.9897 23.9546 68.8266 23.4315 68.446C22.9085 68.0654 22.5533 67.4968 22.4407 66.8598C22.3281 66.2228 22.4668 65.5669 22.8277 65.03L42.8277 37.53C43.0399 37.2376 43.3131 36.9946 43.6283 36.8179C43.9435 36.6412 44.2933 36.535 44.6535 36.5065C45.0137 36.4779 45.3759 36.5279 45.715 36.6528C46.054 36.7777 46.362 36.9746 46.6177 37.23L59.6627 50.28L77.0727 29H62.3477C61.6846 29 61.0487 28.7366 60.5799 28.2678C60.111 27.7989 59.8477 27.163 59.8477 26.5Z" fill="#02265A"/>
</g>
</svg>
