<svg width="98" height="98" viewBox="0 0 98 98" fill="none" xmlns="http://www.w3.org/2000/svg">
<g opacity="0.1">
<path d="M87.1111 40.8333H84.3889V24.5C84.3889 23.778 84.1021 23.0856 83.5916 22.5751C83.0811 22.0646 82.3887 21.7778 81.6667 21.7778H16.3333C15.6888 21.7883 15.0613 21.5697 14.5628 21.1609C14.0643 20.7521 13.7271 20.1797 13.6111 19.5456V18.5656C13.7271 17.9314 14.0643 17.359 14.5628 16.9502C15.0613 16.5414 15.6888 16.3228 16.3333 16.3333H80.5233C81.2453 16.3333 81.9377 16.0465 82.4482 15.536C82.9588 15.0255 83.2456 14.3331 83.2456 13.6111C83.2456 12.8891 82.9588 12.1967 82.4482 11.6862C81.9377 11.1757 81.2453 10.8889 80.5233 10.8889H16.3333C14.1674 10.8889 12.0902 11.7493 10.5586 13.2808C9.02709 14.8124 8.16667 16.8896 8.16667 19.0556C8.14757 19.3819 8.14757 19.7092 8.16667 20.0356V76.0317C8.17736 77.4974 8.47664 78.9466 9.04744 80.2967C9.61823 81.6467 10.4494 82.8711 11.4933 83.8999C12.5373 84.9288 13.7738 85.7419 15.132 86.2929C16.4903 86.8438 17.9437 87.1219 19.4095 87.1111H81.6667C82.3887 87.1111 83.0811 86.8243 83.5916 86.3138C84.1021 85.8033 84.3889 85.1109 84.3889 84.3889V68.0556H87.1111C87.8331 68.0556 88.5255 67.7688 89.036 67.2582C89.5465 66.7477 89.8333 66.0553 89.8333 65.3333V43.5556C89.8333 42.8336 89.5465 42.1412 89.036 41.6307C88.5255 41.1201 87.8331 40.8333 87.1111 40.8333ZM78.9445 81.6667H19.4095C17.8954 81.6813 16.4367 81.0975 15.3509 80.0422C14.265 78.9869 13.6398 77.5456 13.6111 76.0317V26.8956C14.4948 27.1516 15.4142 27.262 16.3333 27.2222H78.9445V40.8333H59.8889C56.279 40.8333 52.817 42.2674 50.2644 44.8199C47.7118 47.3725 46.2778 50.8346 46.2778 54.4444C46.2778 58.0543 47.7118 61.5164 50.2644 64.069C52.817 66.6215 56.279 68.0556 59.8889 68.0556H78.9445V81.6667ZM84.3889 62.6111H59.8889C57.723 62.6111 55.6457 61.7507 54.1142 60.2192C52.5826 58.6876 51.7222 56.6104 51.7222 54.4444C51.7222 52.2785 52.5826 50.2013 54.1142 48.6697C55.6457 47.1382 57.723 46.2778 59.8889 46.2778H84.3889V62.6111Z" fill="#02265A"/>
<path d="M62.6383 58.5278C64.8935 58.5278 66.7217 56.6996 66.7217 54.4444C66.7217 52.1893 64.8935 50.3611 62.6383 50.3611C60.3832 50.3611 58.555 52.1893 58.555 54.4444C58.555 56.6996 60.3832 58.5278 62.6383 58.5278Z" fill="#02265A"/>
</g>
</svg>
